# xmcd
#
# Track frame offsets: 
#        150
#        18137
#        42330
#        58593
#        71204
#        93890
#        118211
#        137948
#        159273
#        169955
#        187079
#        207090
#        223380
#        244395
#        259422
#        284462
#        297090
#
# Disc length: 4464 seconds
#
# Revision: 0
# Processed by: cddbd v1.4PL0 Copyright (c) Steve Scherf et al.
# Submitted via: ExactAudioCopy v0.90b4
#
DISCID=13116e11
DTITLE=Верка Сердючка - Я Рождена Для Любви
DYEAR=2002
DGENRE=Pop
TTITLE0=Гоп-Гоп
TTITLE1=Я Рождена Для Любви
TTITLE2=Пирожок
TTITLE3=Горiлка
TTITLE4=Девочки
TTITLE5=Ты Уволен
TTITLE6=Ваза И Пион
TTITLE7=Солнце И Луна
TTITLE8=А Я У Гай Ходила
TTITLE9=Люта Бджiлка
TTITLE10=Абрикосы
TTITLE11=Контролер
TTITLE12=А Метель Метет Белая
TTITLE13=Вишенка
TTITLE14=Хера-Махера
TTITLE15=Я - Революция
TTITLE16=Вера and Миша  (дуэт с М.Поплавским) and Сестра и Принцесса
EXTD=
EXTT0=
EXTT1=
EXTT2=
EXTT3=
EXTT4=
EXTT5=
EXTT6=
EXTT7=
EXTT8=
EXTT9=
EXTT10=
EXTT11=
EXTT12=
EXTT13=
EXTT14=
EXTT15=
EXTT16=
PLAYORDER=
